# xmcd CD database file
#
# Track frame offsets:
#	150
#	27042
#	42449
#	58452
#	71282
#	84827
#	103790
#	129313
#	156514
#	169547
#	196948
#	216324
#	235991
#	249976
#
# Disc length: 3510 seconds
#
# Revision: 0
# Processed by: cddbd v1.5.2PL0 Copyright (c) Steve Scherf et al.
# Submitted via: CDex 1.51
#
DISCID=bc0db40e
DTITLE=Grdina/Peacock/Motian - Think Like The Waves
DYEAR=2006
DGENRE=Jazz
TTITLE0=Yellow Spot Into The Sun
TTITLE1=Different Places
TTITLE2=Platform
TTITLE3=Renunciation
TTITLE4=Morning Moon
TTITLE5=Ginger Root
TTITLE6=100 Years
TTITLE7=Distant
TTITLE8=Combustion
TTITLE9=Think Like The Waves
TTITLE10=Cobble Hill
TTITLE11=Albert The Monk
TTITLE12=String Quartet #6
TTITLE13=Strathcona
EXTD=YEAR: 2006
EXTT0=
EXTT1=
EXTT2=
EXTT3=
EXTT4=
EXTT5=
EXTT6=
EXTT7=
EXTT8=
EXTT9=
EXTT10=
EXTT11=
EXTT12=
EXTT13=
PLAYORDER=
